<svg width="12" height="12" viewBox="0 0 12 12" fill="none" xmlns="http://www.w3.org/2000/svg">
<path d="M0 1.73528C0 1.35047 0.135139 1.03301 0.405405 0.782895C0.675672 0.532771 1.02703 0.407715 1.45946 0.407715C1.88417 0.407715 2.2278 0.530843 2.49035 0.777123C2.76061 1.03109 2.89575 1.36201 2.89575 1.76991C2.89575 2.13932 2.76448 2.44715 2.50193 2.69343C2.23166 2.9474 1.87645 3.07438 1.43629 3.07438H1.42471C0.999996 3.07438 0.656375 2.9474 0.393822 2.69343C0.13127 2.43946 0 2.12007 0 1.73528ZM0.150579 11.8363V4.12489H2.72201V11.8363H0.150579ZM4.14672 11.8363H6.71815V7.53037C6.71815 7.261 6.74904 7.05321 6.81081 6.90699C6.91891 6.64532 7.08301 6.42406 7.30309 6.24321C7.52317 6.06235 7.79922 5.97193 8.13127 5.97193C8.99614 5.97193 9.42857 6.55297 9.42857 7.71507V11.8363H12V7.41493C12 6.27591 11.7297 5.41204 11.1892 4.8233C10.6486 4.23455 9.93437 3.94018 9.04633 3.94018C8.05019 3.94018 7.27413 4.36731 6.71815 5.22157V5.24465H6.70656L6.71815 5.22157V4.12489H4.14672C4.16216 4.37115 4.16988 5.1369 4.16988 6.42214C4.16988 7.70737 4.16216 9.51208 4.14672 11.8363Z" fill="white"/>
</svg>
