<svg width="14" height="10" viewBox="0 0 14 10" fill="none" xmlns="http://www.w3.org/2000/svg">
<path d="M7.29234 9.77535L4.58421 9.72474C3.70738 9.7071 2.82837 9.74231 1.96873 9.55959C0.661017 9.28658 0.568374 7.94798 0.471433 6.82515C0.337858 5.24659 0.389569 3.63938 0.641642 2.07399C0.783945 1.19565 1.34397 0.671536 2.21002 0.614502C5.13359 0.407519 8.0766 0.432048 10.9937 0.528614C11.3018 0.537466 11.612 0.58585 11.9157 0.640924C13.4153 0.909536 13.4519 2.42647 13.5491 3.70344C13.646 4.99359 13.6051 6.29036 13.4198 7.57172C13.2711 8.63266 12.9867 9.52235 11.7865 9.60824C10.2826 9.72055 8.81331 9.81097 7.30523 9.78218C7.3053 9.77535 7.29664 9.77535 7.29234 9.77535ZM5.70022 7.08937C6.83349 6.42443 7.94514 5.77057 9.07193 5.11009C7.93654 4.44515 6.82701 3.79129 5.70022 3.13081V7.08937Z" fill="white"/>
</svg>
