<svg width="86" height="83" viewBox="0 0 86 83" fill="none" xmlns="http://www.w3.org/2000/svg">
<mask id="path-1-inside-1_52_1861" fill="white">
<path d="M12.5868 43.0507C11.8058 42.2696 11.8058 41.0033 12.5868 40.2223L17.1811 35.628C21.8673 30.9417 29.4653 30.9417 34.1516 35.628L38.7458 40.2223C39.5269 41.0033 39.5269 42.2696 38.7458 43.0507L34.1516 47.6449C29.4653 52.3312 21.8673 52.3312 17.1811 47.6449L12.5868 43.0507Z"/>
</mask>
<path d="M12.5868 43.0507C11.8058 42.2696 11.8058 41.0033 12.5868 40.2223L17.1811 35.628C21.8673 30.9417 29.4653 30.9417 34.1516 35.628L38.7458 40.2223C39.5269 41.0033 39.5269 42.2696 38.7458 43.0507L34.1516 47.6449C29.4653 52.3312 21.8673 52.3312 17.1811 47.6449L12.5868 43.0507Z" stroke="#C69B7B" stroke-width="8" mask="url(#path-1-inside-1_52_1861)"/>
<mask id="path-2-inside-2_52_1861" fill="white">
<path d="M46.6896 43.0507C45.9086 42.2696 45.9086 41.0033 46.6896 40.2223L51.2838 35.628C55.9701 30.9417 63.5681 30.9417 68.2544 35.628L72.8486 40.2223C73.6297 41.0033 73.6297 42.2696 72.8486 43.0507L68.2544 47.6449C63.5681 52.3312 55.9701 52.3312 51.2838 47.6449L46.6896 43.0507Z"/>
</mask>
<path d="M46.6896 43.0507C45.9086 42.2696 45.9086 41.0033 46.6896 40.2223L51.2838 35.628C55.9701 30.9417 63.5681 30.9417 68.2544 35.628L72.8486 40.2223C73.6297 41.0033 73.6297 42.2696 72.8486 43.0507L68.2544 47.6449C63.5681 52.3312 55.9701 52.3312 51.2838 47.6449L46.6896 43.0507Z" stroke="#C69B7B" stroke-width="8" mask="url(#path-2-inside-2_52_1861)"/>
<mask id="path-3-inside-3_52_1861" fill="white">
<path d="M41.3036 11.5055C42.0846 10.7245 43.3509 10.7245 44.132 11.5055L48.7262 16.0998C53.4125 20.786 53.4125 28.384 48.7262 33.0703L44.132 37.6645C43.3509 38.4456 42.0846 38.4456 41.3036 37.6645L36.7093 33.0703C32.023 28.384 32.023 20.786 36.7093 16.0998L41.3036 11.5055Z"/>
</mask>
<path d="M41.3036 11.5055C42.0846 10.7245 43.3509 10.7245 44.132 11.5055L48.7262 16.0998C53.4125 20.786 53.4125 28.384 48.7262 33.0703L44.132 37.6645C43.3509 38.4456 42.0846 38.4456 41.3036 37.6645L36.7093 33.0703C32.023 28.384 32.023 20.786 36.7093 16.0998L41.3036 11.5055Z" stroke="#C69B7B" stroke-width="8" mask="url(#path-3-inside-3_52_1861)"/>
<mask id="path-4-inside-4_52_1861" fill="white">
<path d="M41.0797 43.9142C41.8607 43.1332 43.1271 43.1332 43.9081 43.9142L48.5023 48.5084C53.1886 53.1947 53.1886 60.7927 48.5023 65.479L43.9081 70.0732C43.1271 70.8543 41.8607 70.8543 41.0797 70.0732L36.4854 65.479C31.7992 60.7927 31.7992 53.1947 36.4855 48.5084L41.0797 43.9142Z"/>
</mask>
<path d="M41.0797 43.9142C41.8607 43.1332 43.1271 43.1332 43.9081 43.9142L48.5023 48.5084C53.1886 53.1947 53.1886 60.7927 48.5023 65.479L43.9081 70.0732C43.1271 70.8543 41.8607 70.8543 41.0797 70.0732L36.4854 65.479C31.7992 60.7927 31.7992 53.1947 36.4855 48.5084L41.0797 43.9142Z" stroke="#C69B7B" stroke-width="8" mask="url(#path-4-inside-4_52_1861)"/>
<path d="M50.5742 2.98267C52.7558 2.80153 54.6421 2.81635 56.3857 3.35767L56.7324 3.4729C57.9502 3.90551 58.8583 4.89663 60.002 6.46899C60.9675 7.79655 62.1874 9.70005 63.917 11.0471L64.2695 11.3088C66.4043 12.8136 69.2726 13.8321 71.3975 14.7346C73.6314 15.6835 75.0655 16.5032 75.7646 17.4846L75.8945 17.6838C76.7078 19.0421 77.1151 20.7263 77.4824 22.8684C77.8107 24.7829 78.1105 27.1053 78.7578 29.4065L78.8916 29.8665C79.5517 32.0465 80.9495 34.3344 81.9326 36.1887C83.0088 38.2185 83.7158 39.9173 83.7158 41.5002C83.7158 43.0145 83.0628 44.351 82.0107 46.011C81.1036 47.4423 79.7606 49.2802 79.0293 51.3772L78.8916 51.8C78.1278 54.3227 77.9933 57.1948 77.7373 59.4338C77.4791 61.6916 77.0986 63.4872 76.1855 64.8889L75.9951 65.1643C74.9525 66.5915 73.283 67.5714 71.083 68.5803C69.1707 69.4573 66.7061 70.4056 64.6709 71.7434L64.2695 72.0159C62.377 73.35 61.0636 75.3084 60.0322 76.6536C58.9745 78.033 58.1043 78.9597 56.9648 79.4377L56.7324 79.5266C54.892 80.1804 52.9012 80.211 50.5742 80.0178C48.3833 79.8359 45.627 79.4114 43 79.4114C40.373 79.4114 37.6167 79.8359 35.4258 80.0178C33.2442 80.199 31.358 80.1832 29.6143 79.6418L29.2676 79.5266C27.5883 78.9301 26.2392 77.8721 24.7998 76.5042C23.5286 75.2961 22.026 73.666 20.3262 72.3206L19.9834 72.0549C18.1879 70.6982 15.9727 69.5837 14.2627 68.5881C12.5469 67.5891 11.1612 66.6254 10.1924 65.4104L10.0049 65.1643C8.89342 63.6428 8.30177 61.6645 7.82812 59.2727C7.41293 57.176 7.06663 54.564 6.42285 52.2571L6.29004 51.8C5.63478 49.6361 4.45423 47.6935 3.66992 46.1672C2.83665 44.5456 2.28422 43.1388 2.28418 41.5002C2.28418 39.9173 2.99122 38.2185 4.06738 36.1887C4.98906 34.4503 6.27446 32.331 6.97559 30.2766L7.1084 29.8665C7.86541 27.3662 8.00527 24.8424 8.25781 22.9348C8.50641 21.0572 8.8698 19.5251 9.80859 18.1165L10.0049 17.8362C10.9564 16.5336 12.3753 15.5927 14.2051 14.6067C15.8057 13.7441 17.8745 12.7818 19.6357 11.5247L19.9834 11.2698C21.8557 9.85488 23.477 7.98801 24.8398 6.61938C26.201 5.2525 27.4584 4.19638 28.9629 3.58911L29.2676 3.4729C31.1079 2.8192 33.0989 2.78946 35.4258 2.98267C37.6167 3.16459 40.373 3.58813 43 3.58813C45.627 3.58813 48.3833 3.16459 50.5742 2.98267Z" stroke="#C69B7B" stroke-width="4"/>
</svg>
