<svg width="12" height="13" viewBox="0 0 12 13" fill="none" xmlns="http://www.w3.org/2000/svg">
<path fill-rule="evenodd" clip-rule="evenodd" d="M0 6.12207C0 3.72531 0 2.52693 0.571128 1.66377C0.826164 1.27833 1.15626 0.948234 1.5417 0.693198C2.40486 0.12207 3.60324 0.12207 6 0.12207C8.39676 0.12207 9.59514 0.12207 10.4583 0.693198C10.8437 0.948234 11.1738 1.27833 11.4289 1.66377C12 2.52693 12 3.72531 12 6.12207C12 8.51883 12 9.71721 11.4289 10.5804C11.1738 10.9658 10.8437 11.2959 10.4583 11.5509C9.59514 12.1221 8.39676 12.1221 6 12.1221C3.60324 12.1221 2.40486 12.1221 1.5417 11.5509C1.15626 11.2959 0.826164 10.9658 0.571128 10.5804C0 9.71721 0 8.51883 0 6.12207ZM9.10617 6.12222C9.10617 7.83777 7.71544 9.22849 5.99989 9.22849C4.28435 9.22849 2.89362 7.83777 2.89362 6.12222C2.89362 4.40667 4.28435 3.01595 5.99989 3.01595C7.71544 3.01595 9.10617 4.40667 9.10617 6.12222ZM5.99989 8.17756C7.13502 8.17756 8.05523 7.25735 8.05523 6.12222C8.05523 4.98709 7.13502 4.06689 5.99989 4.06689C4.86476 4.06689 3.94456 4.98709 3.94456 6.12222C3.94456 7.25735 4.86476 8.17756 5.99989 8.17756ZM9.22885 3.58977C9.63195 3.58977 9.95873 3.26299 9.95873 2.85989C9.95873 2.45678 9.63195 2.13 9.22885 2.13C8.82575 2.13 8.49897 2.45678 8.49897 2.85989C8.49897 3.26299 8.82575 3.58977 9.22885 3.58977Z" fill="white"/>
</svg>
