<svg width="12" height="10" viewBox="0 0 12 10" fill="none" xmlns="http://www.w3.org/2000/svg">
<path d="M8.01803 0.256312V0.25415H8.5807L8.78629 0.295212C8.92336 0.321869 9.04779 0.356804 9.1596 0.400026C9.27142 0.443248 9.37963 0.493678 9.48422 0.551305C9.58882 0.608931 9.68369 0.667648 9.76881 0.727436C9.85321 0.78651 9.92896 0.849183 9.99604 0.915453C10.0624 0.982448 10.1659 0.999737 10.3066 0.96732C10.4473 0.934904 10.5987 0.889877 10.761 0.83225C10.9234 0.774624 11.0839 0.70979 11.2426 0.637749C11.4013 0.565708 11.4979 0.519968 11.5326 0.500518C11.5665 0.480355 11.5845 0.469549 11.5867 0.468101L11.5888 0.46486L11.5996 0.459457L11.6105 0.454054L11.6213 0.448651L11.6321 0.443248L11.6343 0.440007L11.6375 0.437846L11.6408 0.435685L11.6429 0.432443L11.6537 0.429201L11.6646 0.42704L11.6624 0.443248L11.6592 0.459457L11.6537 0.475665L11.6483 0.491874L11.6429 0.502679L11.6375 0.513485L11.6321 0.529693C11.6285 0.540499 11.6249 0.554903 11.6213 0.572916C11.6177 0.590929 11.5834 0.662959 11.5185 0.789028C11.4536 0.915097 11.3724 1.04296 11.275 1.17263C11.1776 1.30229 11.0904 1.40026 11.0132 1.46654C10.9353 1.53353 10.8837 1.58035 10.8584 1.60701C10.8332 1.63438 10.8025 1.65959 10.7665 1.68265L10.7124 1.71831L10.7015 1.72371L10.6907 1.72912L10.6886 1.73236L10.6853 1.73452L10.6821 1.73668L10.6799 1.73992L10.6691 1.74532L10.6583 1.75073L10.6561 1.75397L10.6528 1.75613L10.6496 1.75829L10.6474 1.76153L10.6453 1.76477L10.642 1.76694L10.6388 1.7691L10.6366 1.77234H10.6907L10.9937 1.7075C11.1957 1.66428 11.3886 1.61206 11.5726 1.55082L11.8647 1.45357L11.8972 1.44277L11.9134 1.43736L11.9243 1.43196L11.9351 1.42656L11.9459 1.42116L11.9567 1.41575L11.9784 1.41251L12 1.41035V1.43196L11.9946 1.43412L11.9892 1.43736L11.987 1.44061L11.9838 1.44277L11.9805 1.44493L11.9784 1.44817L11.9762 1.45141L11.9729 1.45357L11.9697 1.45573L11.9675 1.45898L11.9654 1.46222L11.9621 1.46438L11.9567 1.47518L11.9513 1.48599L11.9481 1.48815C11.9466 1.49031 11.9008 1.55154 11.8106 1.67185C11.7205 1.79287 11.6718 1.85409 11.6646 1.85554C11.6574 1.8577 11.6472 1.86851 11.6343 1.88796C11.622 1.90812 11.5455 1.98845 11.4049 2.12892C11.2642 2.2694 11.1264 2.39437 10.9915 2.50388C10.8559 2.61409 10.7874 2.74952 10.7859 2.91017C10.7838 3.07009 10.7755 3.25091 10.761 3.45261C10.7466 3.65432 10.7196 3.87222 10.6799 4.10635C10.6402 4.34047 10.5789 4.60521 10.4959 4.90056C10.413 5.19591 10.312 5.48406 10.193 5.76501C10.0739 6.04595 9.9495 6.29808 9.81966 6.5214C9.68981 6.74472 9.57078 6.93382 9.46258 7.0887C9.35437 7.24357 9.24437 7.38945 9.13255 7.52632C9.02074 7.6632 8.87936 7.81736 8.7084 7.9888C8.53671 8.15953 8.44294 8.25318 8.42706 8.26975C8.41047 8.2856 8.33978 8.34467 8.21497 8.44696C8.0909 8.54997 7.95744 8.65298 7.81461 8.756C7.6725 8.8583 7.54193 8.94366 7.4229 9.01209C7.30388 9.08053 7.16033 9.15868 6.99225 9.24658C6.82489 9.33518 6.64382 9.4173 6.44905 9.49294C6.25428 9.56858 6.04869 9.63882 5.83228 9.70365C5.61587 9.76849 5.40668 9.81892 5.20469 9.85493C5.00271 9.89095 4.77367 9.92157 4.51758 9.94678L4.13345 9.9846V9.99H3.43012V9.9846L3.33814 9.97919C3.27683 9.9756 3.22633 9.97199 3.18665 9.96839C3.14699 9.96479 2.99729 9.94497 2.7376 9.90896C2.47791 9.87294 2.27412 9.83692 2.12624 9.8009C1.97837 9.76489 1.75834 9.69644 1.46619 9.5956C1.17403 9.49475 0.924076 9.39281 0.716321 9.2898C0.509291 9.1875 0.379445 9.12267 0.326781 9.0953C0.274842 9.06864 0.216411 9.03551 0.151488 8.99588L0.0541028 8.93645L0.0519495 8.93321L0.0486925 8.93105L0.0454463 8.92889L0.0432822 8.92565L0.0324617 8.92025L0.0216411 8.91484L0.0194878 8.9116L0.0162308 8.90944L0.0129847 8.90728L0.0108206 8.90404L0.00866727 8.9008L0.00541028 8.89863H0V8.87702L0.0108206 8.87918L0.0216411 8.88243L0.0703336 8.88783C0.102795 8.89143 0.191167 8.89683 0.335437 8.90404C0.479719 8.91124 0.633003 8.91124 0.795311 8.90404C0.957619 8.89683 1.12354 8.88062 1.29306 8.85541C1.46258 8.8302 1.66276 8.78698 1.8936 8.72574C2.12444 8.66451 2.33653 8.59175 2.52986 8.50747C2.72246 8.42247 2.85952 8.35908 2.94104 8.31729C3.02183 8.27623 3.14518 8.19987 3.31109 8.08821L3.55996 7.92073L3.56213 7.91749L3.56537 7.91532L3.56863 7.91316L3.57078 7.90992L3.57295 7.90668L3.57619 7.90452L3.57945 7.90236L3.58161 7.89912L3.59243 7.89587L3.60325 7.89371L3.60541 7.88291L3.60866 7.8721L3.61191 7.86994L3.61407 7.8667L3.5275 7.8613C3.4698 7.8577 3.41389 7.85409 3.35978 7.85049C3.30568 7.84689 3.22092 7.83068 3.1055 7.80187C2.99009 7.77305 2.86565 7.72982 2.73219 7.6722C2.59874 7.61457 2.46889 7.54613 2.34265 7.46689C2.21642 7.38765 2.12516 7.32173 2.06889 7.26915C2.01335 7.21727 1.94121 7.1438 1.85248 7.04871C1.76448 6.95291 1.68801 6.85457 1.62308 6.75372C1.55816 6.65287 1.49613 6.53652 1.43698 6.4047L1.34716 6.20804L1.34175 6.19183L1.33634 6.17562L1.33309 6.16482L1.33093 6.15401L1.34716 6.15617L1.36339 6.15941L1.48242 6.17562C1.56177 6.18643 1.68621 6.19003 1.85573 6.18643C2.02525 6.18283 2.14247 6.17562 2.20739 6.16482C2.27232 6.15401 2.312 6.1468 2.32642 6.14321L2.34806 6.1378L2.37511 6.1324L2.40216 6.127L2.40433 6.12375L2.40757 6.12159L2.41083 6.11943L2.41298 6.11619L2.39134 6.11079L2.3697 6.10539L2.34806 6.09998L2.32642 6.09458L2.30478 6.08918C2.29036 6.08558 2.26511 6.07837 2.22904 6.06757C2.19297 6.05676 2.09559 6.01714 1.93688 5.9487C1.77819 5.88027 1.65194 5.81363 1.55816 5.7488C1.46415 5.68378 1.3745 5.61267 1.28981 5.53593C1.20541 5.45813 1.11272 5.35799 1.01172 5.23553C0.910734 5.11307 0.820566 4.9708 0.741208 4.80871C0.661861 4.64663 0.602348 4.49175 0.562669 4.34407C0.52315 4.19726 0.497077 4.04717 0.484772 3.89564L0.465284 3.66872L0.476105 3.67088L0.486925 3.67412L0.497746 3.67953L0.508566 3.68493L0.519387 3.69033L0.530207 3.69574L0.697926 3.77137C0.809746 3.8218 0.948606 3.86503 1.11452 3.90104C1.28044 3.93706 1.37962 3.95687 1.41208 3.96047L1.46078 3.96588H1.55816L1.55601 3.96263L1.55275 3.96047L1.5495 3.95831L1.54734 3.95507L1.54519 3.95183L1.54193 3.94967L1.53868 3.94751L1.53652 3.94426L1.5257 3.93886L1.51488 3.93346L1.51272 3.93022L1.50947 3.92806L1.50622 3.92589L1.50406 3.92265L1.49324 3.91725L1.48242 3.91185L1.48026 3.90861C1.4781 3.90716 1.44708 3.88411 1.3872 3.83945C1.32804 3.79407 1.26601 3.73536 1.20108 3.66332C1.13616 3.59128 1.07124 3.51564 1.00631 3.4364C0.941269 3.35698 0.883337 3.27201 0.833183 3.18247C0.782694 3.09243 0.729306 2.97788 0.673039 2.83885C0.617497 2.70054 0.575297 2.56115 0.546438 2.42067C0.517591 2.2802 0.50136 2.14153 0.497746 2.00466C0.494142 1.86778 0.497746 1.75073 0.508566 1.65348C0.519387 1.55623 0.541028 1.44637 0.57349 1.32391C0.605951 1.20145 0.652848 1.07178 0.714157 0.934904L0.806132 0.729597L0.811542 0.713389L0.816952 0.69718L0.820209 0.695019L0.822362 0.691777L0.824527 0.688536L0.827773 0.686375L0.83103 0.688536L0.833183 0.691777L0.835347 0.695019L0.838593 0.69718L0.84185 0.699341L0.844004 0.702583L0.846168 0.705825L0.849414 0.707986L0.854824 0.718791L0.860234 0.729597L0.863491 0.731758L0.865645 0.735L1.01172 0.897084C1.10911 1.00514 1.22453 1.12581 1.35798 1.25907C1.49144 1.39234 1.56538 1.46149 1.5798 1.46654C1.59424 1.4723 1.61226 1.48886 1.6339 1.51625C1.65555 1.5429 1.72769 1.60666 1.85032 1.7075C1.97296 1.80835 2.13346 1.92542 2.33183 2.05869C2.53021 2.19195 2.75023 2.32342 2.99188 2.45309C3.23355 2.58276 3.49324 2.69982 3.77096 2.80427C4.0487 2.90873 4.24347 2.97716 4.35528 3.00958C4.46709 3.042 4.65825 3.08341 4.92876 3.13384C5.19928 3.18427 5.40307 3.21669 5.54013 3.23109C5.67719 3.2455 5.77097 3.25379 5.82146 3.25595L5.8972 3.25811L5.89505 3.2419L5.89179 3.22569L5.87015 3.09062C5.85573 3.00058 5.84851 2.87451 5.84851 2.71243C5.84851 2.55034 5.86114 2.40087 5.88638 2.26399C5.91164 2.12712 5.94951 1.98845 6 1.84798C6.0505 1.7075 6.09992 1.59476 6.14824 1.50976C6.1973 1.42548 6.2615 1.32931 6.34085 1.22125C6.42021 1.1132 6.523 1.00154 6.64923 0.886278C6.77548 0.771015 6.91975 0.668362 7.08206 0.578319C7.24436 0.488275 7.39406 0.419833 7.53111 0.373012C7.66817 0.326191 7.7836 0.295568 7.87737 0.281164C7.97115 0.266761 8.01803 0.258473 8.01803 0.256312Z" fill="white"/>
</svg>
